Coordinates
version=1
nRows=37
nColumns=38
inDegrees=no

Units are S.I. units (second, meters, Newtons, ...)
If the header above contains a line with 'inDegrees', this indicates whether rotational values are in degrees (yes) or radians (no).

endheader
time	pelvis_tilt	pelvis_list	pelvis_rotation	pelvis_tx	pelvis_ty	pelvis_tz	hip_flexion_r	hip_adduction_r	hip_rotation_r	knee_angle_r	ankle_angle_r	subtalar_angle_r	mtp_angle_r	hip_flexion_l	hip_adduction_l	hip_rotation_l	knee_angle_l	ankle_angle_l	subtalar_angle_l	mtp_angle_l	lumbar_extension	lumbar_bending	lumbar_rotation	arm_flex_r	arm_add_r	arm_rot_r	elbow_flex_r	pro_sup_r	wrist_flex_r	wrist_dev_r	arm_flex_l	arm_add_l	arm_rot_l	elbow_flex_l	pro_sup_l	wrist_flex_l	wrist_dev_l
1.25	0.150434	1.34634	1.48092	0.860907	1.02638	1.03608	0.445593	-0.084448	-0.0602606	1.18324	-0.240273	0	0	0.327815	-0.0197522	-0.322329	0.29497	-0.116465	0	0	0.171224	-0.010658	0.0618183	-0.197298	-0.314313	0.256756	0.495393	1.4286	0	0	-0.223332	-0.230409	-0.710539	0.439389	1.09264	0	0
1.26	0.170759	1.34741	1.46693	0.85908	1.03696	1.03754	0.461258	-0.0821054	-0.0642034	1.17264	-0.223386	0	0	0.31034	-0.0204494	-0.321313	0.284409	-0.116736	0	0	0.170049	-0.00620408	0.0559503	-0.201859	-0.31209	0.25639	0.490353	1.42299	0	0	-0.221437	-0.229912	-0.713252	0.438301	1.09251	0	0
1.27	0.19101	1.34783	1.45269	0.857341	1.04747	1.03885	0.476696	-0.0793407	-0.0681792	1.15791	-0.203744	0	0	0.292969	-0.0212519	-0.319144	0.272621	-0.117254	0	0	0.169626	-0.00152711	0.0508445	-0.206709	-0.309429	0.253807	0.485518	1.41413	0	0	-0.219469	-0.229507	-0.71459	0.437754	1.09231	0	0
1.28	0.211521	1.34748	1.43804	0.855761	1.05788	1.03994	0.492243	-0.0760515	-0.0721488	1.13992	-0.188187	0	0	0.276957	-0.0230503	-0.31783	0.261715	-0.117679	0	0	0.170023	0.00311688	0.0455049	-0.211408	-0.306578	0.250846	0.481285	1.40682	0	0	-0.218958	-0.230727	-0.710842	0.437331	1.09651	0	0
1.29	0.232864	1.34615	1.42344	0.85423	1.06828	1.04081	0.50741	-0.0727019	-0.0777011	1.1177	-0.170424	0	0	0.262306	-0.0253429	-0.314641	0.251129	-0.118172	0	0	0.17167	0.00757222	0.0400701	-0.216117	-0.302965	0.246921	0.47626	1.39709	0	0	-0.217563	-0.232326	-0.707288	0.436653	1.09894	0	0
1.3	0.253815	1.34455	1.40982	0.852707	1.07864	1.04153	0.521628	-0.0698885	-0.0851018	1.09119	-0.154305	0	0	0.248149	-0.0277698	-0.310719	0.241162	-0.118622	0	0	0.1728	0.0118845	0.0339607	-0.220364	-0.299292	0.242393	0.471781	1.38695	0	0	-0.216324	-0.234025	-0.702136	0.437392	1.09914	0	0
1.31	0.272397	1.34375	1.39778	0.851148	1.0889	1.04216	0.534203	-0.0678909	-0.0923588	1.06091	-0.142379	0	0	0.233099	-0.0294347	-0.308598	0.230477	-0.119164	0	0	0.172967	0.0157282	0.0292097	-0.223797	-0.296212	0.23848	0.468312	1.37836	0	0	-0.216251	-0.237104	-0.691976	0.438585	1.10088	0	0
1.32	0.288521	1.34434	1.3879	0.849846	1.09911	1.04278	0.544349	-0.0657874	-0.100402	1.02595	-0.128356	0	0	0.215119	-0.0306434	-0.304033	0.218409	-0.122192	0	0	0.171377	0.0186971	0.0262593	-0.228154	-0.293743	0.240799	0.465502	1.35087	0	0	-0.200365	-0.22934	-0.757022	0.433347	1.18897	0	0
1.33	0.30187	1.34467	1.38091	0.848468	1.10931	1.04316	0.553525	-0.0647734	-0.108911	0.987219	-0.120446	0	0	0.197899	-0.0314376	-0.301467	0.2068	-0.123559	0	0	0.169719	0.0209469	0.0224071	-0.231635	-0.289983	0.235645	0.462188	1.34085	0	0	-0.19713	-0.232625	-0.747214	0.433646	1.19364	0	0
1.34	0.315194	1.34579	1.37439	0.847105	1.11949	1.04347	0.560111	-0.0639025	-0.118743	0.943422	-0.11551	0	0	0.179307	-0.0317296	-0.298395	0.193289	-0.125247	0	0	0.166984	0.0229071	0.0188582	-0.235149	-0.286508	0.23083	0.459509	1.33137	0	0	-0.192204	-0.235836	-0.737238	0.433011	1.19361	0	0
1.35	0.32789	1.34758	1.36826	0.845809	1.12966	1.04367	0.564283	-0.0624103	-0.127601	0.894346	-0.114486	0	0	0.159576	-0.0318675	-0.295444	0.178639	-0.127112	0	0	0.163376	0.0244908	0.0156195	-0.238526	-0.283556	0.226894	0.458045	1.32383	0	0	-0.186955	-0.239725	-0.725992	0.431634	1.19269	0	0
1.36	0.340085	1.34974	1.36255	0.84461	1.13981	1.0437	0.566264	-0.0603584	-0.134797	0.840372	-0.117033	0	0	0.139131	-0.032089	-0.291549	0.163642	-0.128712	0	0	0.158349	0.0254945	0.0126129	-0.241227	-0.280908	0.224789	0.457395	1.31847	0	0	-0.182268	-0.244198	-0.712953	0.431986	1.19152	0	0
1.37	0.347087	1.34965	1.36128	0.843578	1.14994	1.04333	0.569255	-0.0575441	-0.138607	0.782382	-0.118513	0	0	0.121351	-0.0322825	-0.288343	0.1495	-0.128565	0	0	0.156209	0.0256576	0.0106271	-0.245192	-0.275236	0.208745	0.456027	1.33671	0	0	-0.176354	-0.246486	-0.713119	0.43321	1.19831	0	0
1.38	0.356793	1.35084	1.35719	0.842495	1.15991	1.04269	0.568639	-0.0534387	-0.141188	0.718071	-0.127084	0	0	0.102577	-0.0323162	-0.284734	0.134672	-0.130141	0	0	0.151495	0.0259197	0.0079053	-0.245974	-0.277901	0.227425	0.457418	1.31263	0	0	-0.174047	-0.253316	-0.687005	0.435755	1.17539	0	0
1.39	0.363093	1.35138	1.35591	0.841824	1.17013	1.04225	0.566518	-0.0472961	-0.141534	0.648233	-0.138754	0	0	0.084082	-0.0341689	-0.281112	0.120765	-0.131791	0	0	0.147579	0.0258602	0.00993093	-0.252929	-0.267375	0.186927	0.458024	1.35987	0	0	-0.144905	-0.237064	-0.810637	0.429292	1.31293	0	0
1.4	0.366484	1.35037	1.35757	0.8411	1.18038	1.04122	0.564214	-0.0409718	-0.139891	0.574848	-0.149316	0	0	0.0679314	-0.0348092	-0.27716	0.1073	-0.132682	0	0	0.145228	0.0250403	0.006582	-0.254632	-0.26586	0.186534	0.459408	1.36889	0	0	-0.141787	-0.241245	-0.802776	0.431913	1.3163	0	0
1.41	0.365126	1.34736	1.36386	0.84038	1.19069	1.03981	0.561899	-0.0349179	-0.133933	0.496874	-0.161827	0	0	0.0544945	-0.0351218	-0.27229	0.0948241	-0.132847	0	0	0.146175	0.0237357	0.00280925	-0.256456	-0.265065	0.188032	0.4604	1.37873	0	0	-0.139839	-0.246608	-0.791674	0.433164	1.32069	0	0
1.42	0.359682	1.3424	1.37434	0.839742	1.20109	1.038	0.559402	-0.0290347	-0.12331	0.414654	-0.175602	0	0	0.0442273	-0.0354834	-0.267311	0.0847578	-0.131622	0	0	0.150286	0.0219355	-0.00116188	-0.259208	-0.264438	0.189168	0.462132	1.38687	0	0	-0.138352	-0.251969	-0.78113	0.434476	1.32105	0	0
1.43	0.351272	1.33676	1.38838	0.839151	1.21162	1.03588	0.555937	-0.024042	-0.109758	0.330731	-0.188716	0	0	0.0360583	-0.0354931	-0.262995	0.0774007	-0.12936	0	0	0.155997	0.0193921	-0.00548124	-0.262995	-0.263825	0.189306	0.4649	1.39242	0	0	-0.137283	-0.257506	-0.770035	0.43638	1.31774	0	0
1.44	0.34022	1.33108	1.40586	0.838496	1.22234	1.03357	0.551386	-0.0207028	-0.0949733	0.247589	-0.197717	0	0	0.028973	-0.0349814	-0.258388	0.0722028	-0.12655	0	0	0.163558	0.0158122	-0.0123317	-0.264965	-0.267634	0.210597	0.467228	1.37066	0	0	-0.138527	-0.263059	-0.761138	0.439104	1.31554	0	0
1.45	0.330207	1.32625	1.42256	0.837729	1.2332	1.03115	0.545086	-0.0184863	-0.0788929	0.166984	-0.210096	0	0	0.0218757	-0.0346029	-0.254619	0.0692339	-0.121847	0	0	0.168219	0.0129256	-0.0189448	-0.268838	-0.267037	0.204747	0.470928	1.37795	0	0	-0.135319	-0.264485	-0.773069	0.441477	1.32982	0	0
1.46	0.321138	1.32173	1.43811	0.836905	1.24415	1.02856	0.539139	-0.0172879	-0.0637202	0.0927495	-0.226842	0	0	0.0157693	-0.0338643	-0.252372	0.0687431	-0.114479	0	0	0.171722	0.0111522	-0.0241624	-0.274067	-0.266056	0.188511	0.47723	1.39196	0	0	-0.142518	-0.27781	-0.710461	0.445713	1.26734	0	0
1.47	0.312789	1.3177	1.45176	0.836355	1.25539	1.02611	0.535259	-0.0160051	-0.056436	0.0326908	-0.233893	0	0	0.00875639	-0.0350825	-0.24919	0.0703193	-0.109176	0	0	0.17378	0.00931716	-0.0330222	-0.2759	-0.265976	0.182124	0.480667	1.39568	0	0	-0.14107	-0.276969	-0.729287	0.450592	1.28132	0	0
1.48	0.308184	1.31466	1.46159	0.835716	1.26671	1.02378	0.535114	-0.0143923	-0.0602377	0	-0.23622	0	0	0.00210631	-0.0366888	-0.248305	0.0741257	-0.105365	0	0	0.175131	0.00891205	-0.0404173	-0.276922	-0.266828	0.176748	0.482599	1.39526	0	0	-0.140064	-0.277981	-0.737322	0.453922	1.28447	0	0
1.49	0.308457	1.31345	1.46581	0.835152	1.27816	1.0217	0.538585	-0.0112308	-0.0762274	0	-0.232258	0	0	-0.00477299	-0.0400348	-0.25146	0.0823688	-0.0961746	0	0	0.174131	0.0102	-0.0474934	-0.277351	-0.267485	0.16758	0.484351	1.39413	0	0	-0.138221	-0.277706	-0.749847	0.456972	1.29033	0	0
1.5	0.309858	1.31345	1.46791	0.834671	1.28973	1.01984	0.541193	-0.00711933	-0.088536	0	-0.221521	0	0	-0.0119439	-0.0440511	-0.256991	0.0932643	-0.0879278	0	0	0.171544	0.0122689	-0.0524562	-0.277472	-0.268183	0.157835	0.485009	1.39125	0	0	-0.135311	-0.278093	-0.75834	0.458333	1.29574	0	0
1.51	0.310371	1.31453	1.46969	0.834297	1.30144	1.0182	0.542747	-0.00263557	-0.0935675	0	-0.212393	0	0	-0.0192294	-0.0482432	-0.264835	0.106718	-0.0815688	0	0	0.16798	0.0144177	-0.0558616	-0.276991	-0.269048	0.149126	0.484238	1.38717	0	0	-0.132275	-0.278331	-0.764058	0.459367	1.29481	0	0
1.52	0.311725	1.31641	1.46959	0.834019	1.31331	1.01682	0.543286	0.00264066	-0.0922411	0	-0.20887	0	0	-0.0268201	-0.0527317	-0.272419	0.121277	-0.0779679	0	0	0.163265	0.0168507	-0.0573252	-0.27586	-0.269987	0.141861	0.481798	1.38253	0	0	-0.128823	-0.278895	-0.767058	0.459674	1.29153	0	0
1.53	0.319234	1.32334	1.46202	0.833807	1.32531	1.01595	0.540031	0.0092739	-0.0873378	0	-0.209273	0	0	-0.0379203	-0.0591331	-0.28715	0.141461	-0.0699707	0	0	0.149636	0.0217894	-0.0565625	-0.275157	-0.272889	0.134978	0.484271	1.36818	0	0	-0.141418	-0.299494	-0.648368	0.465184	1.16385	0	0
1.54	0.330584	1.32987	1.4508	0.833443	1.33784	1.01535	0.534186	0.017204	-0.086472	0.0131188	-0.208667	0	0	-0.0485851	-0.0667737	-0.299992	0.161532	-0.0662755	0	0	0.139178	0.0268518	-0.0537486	-0.275157	-0.273698	0.122399	0.482268	1.36547	0	0	-0.124148	-0.286057	-0.724675	0.461044	1.23709	0	0
1.55	0.344261	1.3371	1.43791	0.832928	1.35066	1.01485	0.53264	0.0245553	-0.0962545	0.0546175	-0.203204	0	0	-0.0586512	-0.075416	-0.313718	0.185414	-0.0653326	0	0	0.128154	0.0323758	-0.0543482	-0.274495	-0.277181	0.119428	0.481396	1.35682	0	0	-0.123297	-0.286771	-0.719579	0.462317	1.22934	0	0
1.56	0.361192	1.34435	1.42225	0.832279	1.36385	1.01445	0.527495	0.0321535	-0.101824	0.0884383	-0.205483	0	0	-0.0679104	-0.0850541	-0.327575	0.212179	-0.0664899	0	0	0.11831	0.0383285	-0.0555749	-0.274894	-0.281284	0.118297	0.480989	1.34853	0	0	-0.12424	-0.287216	-0.713405	0.464093	1.22091	0	0
1.57	0.379338	1.34869	1.40554	0.831609	1.37731	1.01402	0.521184	0.0398989	-0.0988541	0.107019	-0.224546	0	0	-0.0728541	-0.0954615	-0.337201	0.241315	-0.0703717	0	0	0.11359	0.044795	-0.0575012	-0.275855	-0.285437	0.118753	0.478991	1.34231	0	0	-0.126518	-0.28667	-0.710081	0.464928	1.21099	0	0
1.58	0.397183	1.34987	1.38926	0.831023	1.39086	1.01365	0.516507	0.0467181	-0.0922247	0.116909	-0.244761	0	0	-0.0726893	-0.106487	-0.340957	0.273386	-0.0741366	0	0	0.11335	0.0519946	-0.0582702	-0.278675	-0.285501	0.102323	0.475072	1.35833	0	0	-0.127283	-0.285921	-0.707844	0.462094	1.20419	0	0
1.59	0.415979	1.34868	1.37157	0.830536	1.40447	1.01348	0.513115	0.0534416	-0.0879932	0.123407	-0.276258	0	0	-0.0677824	-0.118583	-0.342444	0.309954	-0.0825743	0	0	0.117142	0.0596407	-0.0593482	-0.28008	-0.28835	0.101627	0.468902	1.35789	0	0	-0.128155	-0.282345	-0.718039	0.458899	1.20952	0	0
1.6	0.434806	1.34539	1.35302	0.830127	1.41819	1.01348	0.512582	0.0603885	-0.0916817	0.136251	-0.294802	0	0	-0.0588991	-0.131201	-0.340247	0.350219	-0.0943867	0	0	0.124152	0.0679285	-0.0598224	-0.281639	-0.291461	0.102729	0.461779	1.35739	0	0	-0.130546	-0.277964	-0.727337	0.455932	1.21407	0	0
1.61	0.450137	1.3403	1.33779	0.8297	1.43185	1.01361	0.515132	0.0663608	-0.0987507	0.157908	-0.29145	0	0	-0.0464694	-0.144041	-0.332344	0.394123	-0.113169	0	0	0.133251	0.0758406	-0.0609278	-0.279491	-0.300997	0.132067	0.454034	1.3269	0	0	-0.14548	-0.282358	-0.683362	0.458272	1.16171	0	0
